<?xml version="1.0" encoding="UTF-8"?>
<svg version="1.1" viewBox="0 0 2048 514" width="820" height="206" xmlns="http://www.w3.org/2000/svg">
<path transform="translate(0)" d="m0 0h2048v514h-2048z" fill="#202020"/>
<path transform="translate(1307,90)" d="m0 0h34l18 3 18 6 15 8 13 11 10 11 9 15 7 19 4 20 1 10v25l-3 19-4 15-7 16-7 12-8 10-8 8-15 11-17 8-21 5-21 2-19-1-20-4-15-5-12-7-10-8-10-9-9-12-8-15-7-22-3-19v-34l3-17 5-16 6-14 8-12 9-10 9-8 18-11 13-5 16-4z" fill="#D2C082"/>
<path transform="translate(976,94)" d="m0 0h54l8 10 8 12 32 47 17 25 11 17 12 19 5 8-1-43v-93l2-2h52l2 2v222l-1 1h-56l-11-16-15-22-22-32-13-19-14-21-12-20-4-7v-2h-2l1 2 1 20v117h-55v-224z" fill="#D2C082"/>
<path transform="translate(725,94)" d="m0 0 56 1v85l91 1v-86l1-1h55l2 1v223l-1 1h-57l-1-88h-90v87l-1 1h-56l-1-1v-221z" fill="#D2BF82"/>
<path transform="translate(582,90)" d="m0 0h33l17 3 16 5 14 7 10 8 8 9 5 8 4 12 2 20-8 3-45 10h-4l-2-16-4-10-7-6-7-3-16-2-14 1-13 4-9 6-6 7-5 12-3 15-1 11 1 31 3 16 4 11 6 10 7 6 10 5 9 2h18l13-3 11-6 7-8 6-18 16 4 35 10 1 2-5 16-7 14-10 13-10 8-15 8-20 6-12 2h-34l-20-4-15-5-15-8-9-7-11-11-7-10-8-15-5-15-4-21-1-10v-27l3-20 6-20 7-14 8-11 12-12 13-9 10-5 18-6z" fill="#D2C082"/>
<path transform="translate(310,95)" d="m0 0h149v47l-1 1h-91v38h25l49 1v48l-73 1-1 39h93l1 1v47l-1 1h-150z" fill="#A78953"/>
<path transform="translate(1471,95)" d="m0 0h146v48h-89v38h31l44 1v48h-75v88l-1 1h-56l-1-1v-221z" fill="#D1BF81"/>
<path transform="translate(1733,95)" d="m0 0h190l1 1v47l-23 1h-44v174l-1 1h-56l-1-20v-155h-66z" fill="#926E3C"/>
<path transform="translate(93,95)" d="m0 0h190v48l-60 1-6 1-1 173-25 1h-31l-1-1v-175h-66z" fill="#926E3C"/>
<path transform="translate(1649,95)" d="m0 0h57v223l-1 1h-56l-1-39v-183z" fill="#A78953"/>
<path transform="translate(1314,138)" d="m0 0h21l11 3 11 7 7 8 6 12 4 16 1 9v29l-4 20-4 9-7 11-7 6-9 5-12 3h-16l-12-3-10-5-9-9-8-16-4-20v-36l4-17 7-14 7-8 10-6z" fill="#202020"/>
<path transform="translate(1733,95)" d="m0 0h46l75 1v1l-12 1-3 1-28 2-10 3-2 2-4 2-1 4-4 5 4 4v3l2 1-2 4-5 1-1 5 6 1 1 5h2v2h-63l-1-21z" fill="#9D7842"/>
<path transform="translate(205,95)" d="m0 0h78v48l-59 1-4-2 6-1 3-3 10-2 3-1v-3l-6-2-5-5-3-6-3-3h-3v-3h3l-1-6-7-1-1-2-27-4-21-2-6-1v-1z" fill="#9D7842"/>
<path transform="translate(1602,100)" d="m0 0h9l3 6 1 17v11l-2 7h-16l-7-3-12-4-1-3 4-5 1-8-1-5 3-2 3-5-1-3z" fill="#A88A54"/>
<path transform="translate(278,378)" d="m0 0h9l7 3 3 4-1 8-1 3 5 1 5 7v10l-4 6-8 4h-15l-2-1-1-37 1-7z" fill="#926E3C"/>
<path transform="translate(1104,378)" d="m0 0h18l7 6 1 2v10l-4 5-6 4 6 11 3 5-1 3-5-1-9-14-2-4-2-1v19l-1 1h-5l-1-27v-15z" fill="#CAB579"/>
<path transform="translate(907,378)" d="m0 0h12l9 4 7 8 2 5v10l-3 8-7 8-7 3h-13l-8-4-6-7-3-8v-9l4-8 7-7zm5 5-9 3-5 6-2 4v11l4 6 5 4 6 2 9-1 6-4 4-5 1-3v-10l-4-7-5-4-5-2z" fill="#C8B377"/>
<path transform="translate(627,378)" d="m0 0h20l8 4 6 8 2 6v11l-4 8-5 5-4 3-3 1h-21l-1-4v-40zm4 5v36h15l8-5 4-8v-8l-4-10-5-4-3-1z" fill="#C0A96E"/>
<path transform="translate(374,271)" d="m0 0h87v47h-9v-3l3-2-1-12-2-3-1-10v-7l-7 1-9-3v-1l-15-2-2-1-14-1-7-1-23-1z" fill="#CFBC7F"/>
<path transform="translate(1593,188)" d="m0 0h3l2 4 1 29-3 5h-8l-9-2-8-3 2-4 4-7 2-5 2-3v-3l2-5 5-2 1-2z" fill="#A88A54"/>
<path transform="translate(1e3 378)" d="m0 0 4 1 1 2v23l2 9 5 4 7 1 6-3 3-4 1-31 2-2 5 1v27l-3 10-5 5-5 3-8 1-8-3-5-4-3-7-1-8 1-24z" fill="#C7B276"/>
<path transform="translate(389,96)" d="m0 0h69v46h-86v-1l33-1 26-2 17-1 7-1-1-8-1-7-1-1-1-17-4-1-4 1v-2l-4 1-16-3-9-1-25-1z" fill="#D4C284"/>
<path transform="translate(1709,378)" d="m0 0 4 1 4 5 14 23 3 4 1-31 4-2 1 1v45l-4-1-9-13-12-19-1-1v33l-5 1z" fill="#997540"/>
<path transform="translate(1616,378)" d="m0 0h7l9 3 5 4v2l3 1 3 6v13l-5 10-9 6-3 1h-11l-8-4-7-8-3-9 1-8 4-8 8-7zm0 5-6 3-5 5-3 6v8l4 8 5 4 4 2h12l8-6 4-8v-8l-4-8-6-5-3-1z" fill="#BFA76D"/>
<path transform="translate(1266,377)" d="m0 0h3l7 14 8 20 2-1 6-15 7-16 5-1-1 7-5 13-10 25-3 2-4-4-10-24-5-13z" fill="#C6B075"/>
<path transform="translate(1445,378)" d="m0 0h8l6 4 3 6-1 5h-4l-2-7-2-2h-6l-5 5-1 5 5 2 12 6 3 3 1 3v7l-7 8-2 1h-9l-6-5-2-4v-6l5 1 3 7 1 1h7l4-4-1-6-14-8-5-5v-7l3-5 4-4z" fill="#C2AB70"/>
<path transform="translate(371,378)" d="m0 0h3l1 29 3 9 4 2h11l5-3 1-3 1-32 1-2 4 1 1 5v25l-4 8-6 5-5 2h-7l-8-4-4-5-2-7v-29z" fill="#B79C62"/>
<path transform="translate(802,378)" d="m0 0 4 2 6 9 4 7v2l2-1 6-11 6-8 4 2-2 4-10 19-1 3-1 17-5 1-1-1-1-19-8-14-4-8z" fill="#C8B377"/>
<path transform="translate(404,182)" d="m0 0h36v47h-58v-1l44-1 11-2v-8l-1-6-1-16-1-6-7-2h-10l-18-3v-1z" fill="#D4C284"/>
<path transform="translate(281,399)" d="m0 0h9l8 2 3 4v8l-4 5-6 2h-9l-1-1-1-19z" fill="#202020"/>
<path transform="translate(545,378)" d="m0 0h3l1 40 13 1 1 5h-19l-1-1v-44z" fill="#9F7E49"/>
<path transform="translate(244,96)" d="m0 0h39v47h-9v-2l3-2 2-8v-14l-1-6v-8l-2-3-21-1-11-2z" fill="#A48550"/>
<path transform="translate(1733,95)" d="m0 0h11l14 1-4 2-13 3-2 6-3 28v7l3 1h-5l-1-21z" fill="#A88A54"/>
<path transform="translate(1616,378)" d="m0 0h7l9 3 5 4v2l3 1 3 6v13l-5 10-4 2 6-10-1-4-2-11-4-6-7-4h-10l-10 5 1-7z" fill="#A98B55"/>
<path transform="translate(1527,379)" d="m0 0h5l1 44-5 1-1-1z" fill="#9A7540"/>
<path transform="translate(1367,378)" d="m0 0h4v46h-5v-45z" fill="#BFA66C"/>
<path transform="translate(401,378)" d="m0 0 4 1 1 5v25l-4 8-4 4-2-1 5-6h-2l1-34z" fill="#997540"/>
<path transform="translate(1738,378)" d="m0 0 2 1v45l-3-1v-4l-3-6 1-33z" fill="#926E3C"/>
<path transform="translate(1110,383)" d="m0 0h9l4 2 2 4v5l-5 4-7 1-3-1z" fill="#212020"/>
<path transform="translate(1714,382)" d="m0 0h2l13 22 5 7 5 11-3 1-9-13-11-17-3-9z" fill="#9A7641"/>
<path transform="translate(282,382)" d="m0 0h7l4 4-1 7-2 2h-7l-2-1v-11z" fill="#202020"/>
<path transform="translate(473,379)" d="m0 0h3v44h-3z" fill="#D4C284"/>
<path transform="translate(445,283)" d="m0 0 5 1v11l-2 2-8-3 1-7z" fill="#D3C183"/>
<path transform="translate(1638,387)" d="m0 0 3 3 2 4v13l-5 10-4 2 6-10-1-4-2-11-1-3 2-2z" fill="#A1814B"/>
<path transform="translate(302,407)" d="m0 0 2 1v8l-4 5-4 2h-7l-4-2 12-4 3-4h2z" fill="#A2834D"/>
<path transform="translate(291,381)" d="m0 0 4 1 2 3-1 8-3 4-2 1h-7l-3-1v-2l9-1 2-3z" fill="#9C7843"/>
<path transform="translate(294,394)" d="m0 0 1 2 5 1 5 7v10h-1l-1-6-1 5h-1l-2-10-2-3-4-1-1-3z" fill="#9A7541"/>
<path transform="translate(1738,378)" d="m0 0h1v24l-1 15h-1l-1-38z" fill="#9D7842"/>
<path transform="translate(1711,383)" d="m0 0h2l3 6-1 2-1-1v33h-1l-1-6z" fill="#926E3C"/>
<path transform="translate(547,420)" d="m0 0h16v3h-18v-2z" fill="#D4C284"/>
<path transform="translate(1528,379)" d="m0 0h3v13l-2 7h-1z" fill="#A88A54"/>
<path transform="translate(401,412)" d="m0 0v3l-5 7-9 1-4-2v-1h10v-2l5-3z" fill="#CFBC7F"/>
<path transform="translate(1528,412)" d="m0 0h3v6h2v5l-5 1z" fill="#A4854F"/>
<path transform="translate(280,420)" d="m0 0h8l1 2 4 2h-15l-1-3z" fill="#997540"/>
<path transform="translate(278,378)" d="m0 0h9l6 2-2 4-7-3h-7z" fill="#9A7541"/>
<path transform="translate(1615,116)" d="m0 0h1l1 26h-5l2-8v-17z" fill="#D4C284"/>
<path transform="translate(442,108)" d="m0 0 4 1-2 5-4 1-2-5z" fill="#D4C284"/>
<path transform="translate(376,419)" d="m0 0 7 1 5 2h6l-3 2h-7l-8-4z" fill="#9F7E4A"/>
<path transform="translate(291,381)" d="m0 0 4 1 1 1-1 9-2 1z" fill="#AE915A"/>
<path transform="translate(401,407)" d="m0 0 3 3-1 6-5 5-2-1 5-6h-2z" fill="#A2824D"/>
</svg>
